<svg width="422" height="46" viewBox="0 0 422 46" fill="none" xmlns="http://www.w3.org/2000/svg">
<g clip-path="url(#clip0_137_312)">
<path d="M237.69 42.115C235.828 44.0375 232.904 45.0388 228.488 45.0388H215.682V0.771026H228.488C232.904 0.771026 235.828 1.76232 237.75 3.63477C239.863 5.68745 240.674 7.99045 240.674 12.8368C240.674 16.0109 240.113 18.4341 238.251 20.2965C237.69 20.8573 237.069 21.3579 236.198 21.7885C237.009 22.219 237.75 22.7798 238.251 23.3405C240.113 25.263 240.674 27.6962 240.674 32.0419C240.674 37.1385 239.933 39.812 237.69 42.115ZM227.427 8.73142H224.503V18.1838H227.427C230.851 18.1838 231.843 16.6918 231.843 13.4576C231.843 10.2234 230.911 8.73142 227.427 8.73142ZM227.307 25.6435H224.513V37.0784H227.307C230.851 37.0784 231.843 35.3962 231.843 31.361C231.843 27.3257 230.721 25.6435 227.307 25.6435Z" fill="#007BB2"/>
<path d="M246.952 45.0388V0.771026H255.784V37.0784H267.349V45.0388H246.952Z" fill="#007BB2"/>
<path d="M302.214 45.0388V0.771026H322.611V8.73142H311.046V18.7445H320.989V26.7049H311.046V37.0884H322.611V45.0488H302.214V45.0388Z" fill="#007BB2"/>
<path d="M292.392 41.8647C290.029 44.2878 286.924 45.5295 283.19 45.5295C279.455 45.5295 276.351 44.2878 273.988 41.8647C271.875 39.6918 270.693 36.7079 270.693 33.1633V0.771026H279.525V33.5939C279.525 36.4576 281.207 37.5691 283.19 37.5691C285.172 37.5691 286.854 36.4476 286.854 33.5939V0.771026H295.686V33.1633C295.686 36.7079 294.504 39.6918 292.392 41.8647Z" fill="#007BB2"/>
<path d="M369.893 44.448H370.303V43.5168H370.634C370.854 43.5168 371.014 43.5468 371.094 43.5969C371.245 43.677 371.315 43.8672 371.315 44.1376V44.3979L371.325 44.4179C371.325 44.428 371.325 44.438 371.325 44.448H371.715L371.695 44.4179C371.695 44.4179 371.685 44.3579 371.675 44.2978C371.675 44.2277 371.675 44.1776 371.675 44.1176V43.9473C371.675 43.8272 371.635 43.707 371.545 43.5869C371.465 43.4567 371.325 43.3866 371.134 43.3566C371.275 43.3365 371.395 43.2965 371.475 43.2364C371.635 43.1363 371.705 42.9861 371.705 42.7758C371.705 42.4854 371.585 42.2852 371.335 42.185C371.195 42.125 370.984 42.1049 370.694 42.1049H369.863V44.458L369.893 44.448ZM371.084 43.1763C370.994 43.2064 370.864 43.2264 370.684 43.2264H370.313V42.3753H370.674C370.904 42.3753 371.064 42.4053 371.174 42.4654C371.275 42.5255 371.325 42.6356 371.325 42.8159C371.325 42.9961 371.245 43.1162 371.084 43.1763ZM372.276 41.7645C371.865 41.3439 371.355 41.1337 370.754 41.1337C370.153 41.1337 369.663 41.3439 369.252 41.7645C368.831 42.185 368.621 42.6857 368.621 43.2765C368.621 43.8672 368.831 44.3779 369.242 44.7984C369.663 45.219 370.163 45.4293 370.754 45.4293C371.345 45.4293 371.855 45.219 372.276 44.7984C372.696 44.3779 372.907 43.8672 372.907 43.2765C372.907 42.6857 372.696 42.175 372.276 41.7645ZM372.066 41.9748C372.426 42.3352 372.606 42.7658 372.606 43.2765C372.606 43.7871 372.426 44.2277 372.066 44.5882C371.705 44.9486 371.275 45.1289 370.764 45.1289C370.253 45.1289 369.823 44.9486 369.462 44.5882C369.102 44.2277 368.932 43.7871 368.932 43.2765C368.932 42.7658 369.112 42.3352 369.462 41.9748C369.823 41.6143 370.253 41.4341 370.764 41.4341C371.275 41.4341 371.705 41.6143 372.066 41.9748Z" fill="#007BB2"/>
<path d="M366.448 12.9469V0.480608H346.602V12.9369H334.136V32.8629H346.602V45.3191H366.448V32.8629H378.905V12.9469H366.448ZM356.555 10.6339C361.492 10.6339 365.747 13.5377 367.71 17.7331H358.949C357.697 17.7031 357.146 16.9822 357.126 16.3814C357.096 15.6704 357.206 15.4502 357.787 14.6992C358.438 13.8481 358.017 12.1959 356.555 12.1959C355.094 12.1959 354.683 13.8481 355.324 14.6992C355.905 15.4502 356.015 15.6704 355.985 16.3814C355.955 16.9822 355.404 17.7131 354.162 17.7331H345.401C347.363 13.5377 351.619 10.6339 356.555 10.6339ZM344.249 22.9399C344.249 21.4079 344.53 19.956 345.03 18.6043L353.291 19.4053C354.843 19.6156 355.023 21.1276 354.613 22.0287L348.956 32.6526C346.082 30.3897 344.239 26.8851 344.239 22.9499L344.249 22.9399ZM363.324 33.2334C361.382 34.505 359.059 35.246 356.565 35.246C354.072 35.246 351.739 34.495 349.807 33.2234L355.804 24.2617C356.245 23.6408 356.916 23.6909 357.336 24.2617L363.334 33.2234L363.324 33.2334ZM364.155 32.6226L358.498 22.0187C358.087 21.1176 358.268 19.6156 359.82 19.3953L368.081 18.5943C368.591 19.946 368.872 21.4079 368.872 22.9299C368.872 26.8651 367.029 30.3596 364.155 32.6126V32.6226Z" fill="#007BB2"/>
<path d="M352.51 20.9974L346.262 20.4167C346.062 21.2277 345.962 22.0688 345.962 22.94C345.962 25.5734 346.923 27.9866 348.515 29.849L352.901 21.4881C353.001 21.2277 352.971 21.0375 352.52 21.0074L352.51 20.9974Z" fill="#007BB2"/>
<path d="M353.611 12.7566C351.599 13.3374 349.827 14.4989 348.505 16.0509H354.042C354.142 16.0209 354.202 15.9008 354.092 15.7906C353.501 15.1498 352.991 13.798 353.622 12.7566H353.611Z" fill="#007BB2"/>
<path d="M366.849 20.4167L360.601 20.9974C360.15 21.0275 360.11 21.2177 360.22 21.478L364.606 29.839C366.198 27.9865 367.159 25.5734 367.159 22.9299C367.159 22.0588 367.049 21.2177 366.859 20.4066L366.849 20.4167Z" fill="#007BB2"/>
<path d="M364.616 16.0509C363.294 14.4989 361.522 13.3374 359.509 12.7566C360.13 13.798 359.63 15.1498 359.039 15.7906C358.929 15.9008 358.979 16.0209 359.079 16.0509H364.616Z" fill="#007BB2"/>
<path d="M356.556 26.1942C356.495 26.1942 356.435 26.2243 356.385 26.2944L352.25 32.6326C353.572 33.2234 355.034 33.5438 356.566 33.5438C358.098 33.5438 359.559 33.2234 360.871 32.6326L356.736 26.2944C356.686 26.2243 356.626 26.1942 356.556 26.1942Z" fill="#007BB2"/>
<path d="M412.489 44.448H412.899V43.5168H413.229C413.45 43.5168 413.6 43.5468 413.69 43.5969C413.84 43.677 413.92 43.8672 413.92 44.1376V44.3979L413.93 44.4179C413.93 44.428 413.93 44.438 413.93 44.448H414.321V44.4179C414.321 44.4179 414.291 44.3579 414.281 44.2978C414.281 44.2277 414.281 44.1776 414.281 44.1176V43.9473C414.281 43.8272 414.241 43.707 414.151 43.5869C414.071 43.4567 413.93 43.3866 413.74 43.3566C413.89 43.3365 414 43.2965 414.081 43.2364C414.231 43.1363 414.311 42.9861 414.311 42.7758C414.311 42.4854 414.191 42.2852 413.95 42.185C413.81 42.125 413.6 42.1049 413.31 42.1049H412.489V44.458V44.448ZM413.67 43.1763C413.58 43.2064 413.45 43.2264 413.28 43.2264H412.909V42.3753H413.26C413.49 42.3753 413.65 42.4053 413.76 42.4654C413.86 42.5255 413.92 42.6356 413.92 42.8159C413.92 42.9961 413.84 43.1162 413.68 43.1763M414.872 41.7645C414.451 41.3439 413.95 41.1337 413.35 41.1337C412.749 41.1337 412.258 41.3439 411.848 41.7645C411.427 42.185 411.217 42.6857 411.217 43.2765C411.217 43.8672 411.427 44.3779 411.838 44.7984C412.248 45.219 412.759 45.4293 413.35 45.4293C413.94 45.4293 414.451 45.219 414.872 44.7984C415.292 44.3779 415.502 43.8672 415.502 43.2765C415.502 42.6857 415.292 42.175 414.872 41.7645ZM414.661 41.9748C415.012 42.3352 415.202 42.7658 415.202 43.2765C415.202 43.7871 415.022 44.2277 414.661 44.5882C414.301 44.9486 413.87 45.1289 413.36 45.1289C412.849 45.1289 412.418 44.9486 412.058 44.5882C411.697 44.2277 411.527 43.7871 411.527 43.2765C411.527 42.7658 411.707 42.3352 412.058 41.9748C412.418 41.6143 412.849 41.4341 413.36 41.4341C413.87 41.4341 414.301 41.6143 414.661 41.9748Z" fill="#007BB2"/>
<path d="M419.097 0C414.181 2.47323 409.234 3.71485 403.497 3.73488C397.749 3.7549 392.803 2.48324 387.886 0C384.652 6.3583 384.192 16.5516 386.985 25.1729C389.669 33.4837 394.886 41.0536 403.497 45.8098C412.098 41.0536 417.315 33.4837 419.998 25.1729C422.792 16.5516 422.331 6.34829 419.097 0ZM416.764 24.1916C414.351 31.2909 410.576 37.5691 403.497 41.9548C403.497 41.9548 403.497 41.9548 403.507 41.9548H403.487C403.487 41.9548 403.487 41.9548 403.497 41.9548C396.418 37.5691 392.653 31.2909 390.23 24.1916C388.087 17.8934 387.556 10.5237 389.919 4.76622C393.454 5.97781 395.526 6.3583 397.459 6.65869C399.251 6.93906 400.853 7.10928 403.477 7.14933H403.497C406.12 7.10928 407.722 6.93906 409.515 6.65869C411.437 6.3583 413.52 5.97781 417.055 4.76622C419.418 10.5237 418.897 17.8934 416.744 24.1916H416.764Z" fill="#007BB2"/>
<path d="M409.635 8.30081C407.562 8.58117 405.519 8.78144 403.507 8.80146H403.487C401.474 8.79145 399.421 8.58117 397.359 8.30081C395.296 8.02044 393.293 7.54983 391.141 6.97908C389.639 11.2346 389.959 16.5916 391.111 21.3679C393.273 30.3596 398.71 37.1985 403.497 40.2125C408.283 37.1985 413.71 30.3696 415.883 21.3679C417.034 16.5916 417.365 11.2346 415.863 6.97908C413.72 7.54983 411.717 8.02044 409.645 8.30081H409.635ZM402.585 36.057C402.505 36.5176 402.636 36.7079 402.545 36.9182C402.435 37.1685 402.135 37.1885 402.005 36.9182C401.855 36.5877 401.704 36.4075 401.764 35.7867C401.824 35.0958 402.165 34.6552 402.375 34.4449C402.646 34.1546 402.886 34.0344 402.886 34.0344L402.906 35.5464C402.906 35.5464 402.646 35.7266 402.585 36.0671V36.057ZM404.528 37.4789C404.528 37.6491 404.388 37.9395 403.917 37.9195C403.537 37.8995 403.306 37.7893 403.296 37.3888C403.236 35.6265 403.196 32.212 403.196 32.212C403.196 32.212 403.707 32.4023 403.947 32.5425C404.027 32.5925 404.348 32.7527 404.568 32.983C404.618 33.0531 404.648 33.0631 404.648 33.1733C404.628 34.455 404.548 36.9082 404.538 37.4789H404.528ZM405.91 34.1445C405.509 34.475 404.969 34.5851 404.969 34.5851L404.989 33.2734C404.989 33.2734 405.179 33.1232 405.139 32.953C405.069 32.6826 404.188 32.1419 403.687 31.9517C403.176 31.7514 402.555 31.5412 402.075 31.3109C401.164 30.8603 400.593 29.8089 401.053 28.7275C401.224 28.327 401.594 28.0866 401.845 27.9364C402.115 27.7762 402.686 27.6661 402.686 27.6661L402.706 29.1681C402.706 29.1681 402.616 29.2181 402.575 29.3583C402.535 29.4885 402.636 29.6987 402.746 29.7488C403.487 30.0692 404.448 30.4497 405.239 30.9103C406.25 31.5011 406.581 32.0618 406.581 32.7728C406.581 33.4236 406.31 33.8341 405.93 34.1445H405.91ZM403.076 26.7149C403.817 26.805 404.158 26.815 404.788 26.8951L404.758 30.2395L403.927 29.8489L403.096 29.5085L403.076 26.7249V26.7149ZM407.532 27.5159C407.412 28.0666 407.051 28.5072 406.471 28.8576C405.87 29.2181 405.119 29.2482 405.119 29.2482L405.169 27.3857C405.169 27.3857 405.439 27.3156 405.529 27.1855C405.619 27.0753 405.639 26.9552 405.599 26.815C405.569 26.7149 405.489 26.6147 405.329 26.5446C405.149 26.4645 404.899 26.4545 404.778 26.4445C403.867 26.3344 403.006 26.2943 402.125 26.084C401.013 25.8237 400.002 24.9926 400.172 23.4506C400.252 22.6495 400.763 21.9386 401.524 21.6082C401.654 21.8485 401.835 22.2991 401.965 22.6295C402.115 23.0601 402.245 23.5007 402.245 23.5007C402.245 23.5007 401.975 23.6308 402.005 23.9212C402.015 24.0714 402.175 24.2116 402.355 24.2316C403.497 24.3918 404.688 24.3317 405.78 24.7222C406.31 24.9125 406.841 25.2029 407.131 25.6134C407.582 26.2342 407.692 26.865 407.542 27.5059L407.532 27.5159ZM401.734 20.8973C401.674 20.7471 401.794 20.6069 401.835 20.5468C401.905 20.4266 402.345 20.2364 402.345 20.2364V19.906C402.345 19.906 402.766 19.8959 403.687 19.956C404.398 19.9961 404.899 20.1062 404.899 20.1062L404.878 24.0514C404.037 23.9312 403.427 23.9613 402.746 23.8611C402.606 22.8198 402.095 21.8785 401.734 20.8973ZM405.289 23.4706C405.289 23.4706 405.359 21.9186 405.359 21.1476C405.82 21.0174 406.04 20.5268 405.8 20.0862C405.7 19.906 405.499 19.7958 405.309 19.7458C404.418 19.5155 403.597 19.4954 402.676 19.4454C401.925 19.4053 401.194 19.3552 400.463 19.135C399.021 18.7044 397.779 17.7832 397.138 16.4014C396.417 14.7993 396.978 12.8267 398.59 11.9856C399.822 11.3448 401.204 11.4649 402.435 11.9356C402.866 12.1058 403.096 12.4763 403.367 12.8367C403.487 12.9969 403.667 13.067 403.767 13.2473C403.837 13.3474 403.697 13.3975 403.637 13.4175C403.366 13.4876 402.455 13.4976 402.165 13.4676C401.794 13.4175 401.174 13.4475 400.803 13.5176C401.194 13.7379 401.584 13.9282 401.975 14.0784C402.215 14.1685 402.435 14.2185 402.656 14.3287C402.746 14.3687 402.926 14.4388 402.936 14.5189C402.926 14.609 402.696 14.6691 402.535 14.7192C402.185 14.8293 401.734 14.8293 401.294 14.7192C400.593 14.549 400.042 14.1484 399.562 14.3087C399.251 14.3988 399.201 14.9895 399.271 15.2799C399.441 16.0109 400.353 16.3313 401.003 16.5416C402.936 17.1624 405.009 16.7418 406.891 17.7131C407.622 18.0836 408.253 18.9147 408.413 19.7257C409.044 23.1101 405.289 23.4606 405.289 23.4606V23.4706ZM408.764 13.0871C408.653 13.4375 408.493 13.4876 408.283 13.7179C407.832 14.1785 407.212 14.6191 406.661 15.2198C406.29 15.6304 405.83 15.9208 405.549 16.3814C405.459 16.5215 405.309 16.7318 405.309 16.7318C404.238 16.5115 403.176 16.5516 402.345 16.3814V15.1498C402.345 15.1498 403.186 15.0096 403.346 14.589C403.357 14.559 403.336 14.4088 403.206 14.3287C403.066 14.2185 402.816 14.1084 402.736 14.0784C403.587 14.2085 404.117 14.3587 404.929 14.7092C404.989 14.6191 404.959 14.4188 404.888 14.3487C404.778 14.2185 404.718 14.1785 404.428 14.1084C403.927 13.9782 402.575 13.808 402.575 13.808C402.575 13.808 403.206 13.808 403.727 13.7179C403.987 13.6778 404.198 13.6278 404.248 13.5376C404.308 13.4075 404.198 13.2072 404.017 13.017C403.887 12.8868 403.767 12.7566 403.667 12.6265C403.537 12.4562 403.336 12.1458 403.116 11.9456C402.926 11.7753 402.445 11.525 402.445 11.525C402.445 11.525 402.365 10.8642 402.495 10.5938C402.596 10.4036 402.846 10.2834 402.986 10.3535C403.597 10.6939 404.198 11.0444 405.009 11.1846C405.179 11.3147 405.179 11.3147 405.229 11.5651C405.339 12.1058 405.229 12.9669 405.329 13.3474C405.389 13.4676 405.509 13.4575 405.599 13.4175C406.35 13.007 406.861 12.306 407.632 11.9756C407.993 11.8254 408.984 12.3261 408.754 13.077L408.764 13.0871Z" fill="#007BB2"/>
<path d="M401.354 12.306C401.594 12.4763 401.544 12.7766 401.895 12.7266C402.065 12.6965 402.175 12.5864 402.335 12.4763C402.355 12.4562 402.435 12.4262 402.485 12.4562C402.105 12.0657 401.444 12.1158 400.933 12.1058C401.064 12.3461 401.204 12.2159 401.354 12.316V12.306Z" fill="#007BB2"/>
<path d="M0 8.65131H2.63344V34.6452H17.2625V36.9783H0V8.65131Z" fill="#343135"/>
<path d="M32.7728 8.24074C39.4415 8.24074 45.3592 12.6465 45.3592 22.9399C45.3592 33.2334 39.4715 37.569 32.7728 37.569C26.074 37.569 20.2564 33.1633 20.2564 22.9399C20.2564 12.7166 26.1842 8.24074 32.7728 8.24074ZM42.6256 22.9399C42.6256 14.6491 38.4802 10.3535 32.7728 10.3535C27.0653 10.3535 23 14.539 23 22.9399C23 31.3409 27.0753 35.4563 32.7728 35.4563C38.4702 35.4563 42.6256 31.1607 42.6256 22.9399Z" fill="#343135"/>
<path d="M51.5874 8.65131H54.2509V24.7924C54.2509 27.6061 54.2509 30.9004 55.7728 32.8329C57.2147 34.6052 59.3976 35.3862 62.1812 35.3862C64.9648 35.3862 67.1076 34.6052 68.5095 32.8329C70.0315 30.9104 69.9914 27.6061 69.9914 24.7924V8.65131H72.5848V27.536C72.5848 34.6452 68.3593 37.539 62.1011 37.539C55.8429 37.539 51.5874 34.6853 51.5874 27.536V8.65131Z" fill="#343135"/>
<path d="M80.4351 8.65131H83.0685V36.9783H80.4351V8.65131Z" fill="#343135"/>
<path d="M107.17 16.2011C106.869 13.057 105.207 10.3535 100.501 10.3535C96.3858 10.3535 93.6923 12.4262 93.6923 15.8006C93.6923 18.8346 95.0941 20.2464 98.7989 20.9073L103.535 21.7584C108.241 22.6095 110.604 25.1328 110.604 29.088C110.604 34.0845 106.98 37.569 100.351 37.569C93.7223 37.569 90.1276 33.5338 89.7972 29.088H92.4606C92.8712 32.202 95.054 35.4162 100.381 35.4162C105.708 35.4162 107.931 32.5625 107.931 29.3082C107.931 26.6047 106.639 24.9425 102.974 24.2717L98.4184 23.4606C92.8612 22.4593 90.9787 19.906 90.9787 15.9408C90.9787 11.2747 94.9439 8.24074 100.491 8.24074C106.038 8.24074 109.563 11.3548 109.753 16.2011H107.16H107.17Z" fill="#343135"/>
<path d="M117.463 8.65131H120.097V36.9783H117.463V8.65131Z" fill="#343135"/>
<path d="M143.577 27.7162H131.692L128.318 36.9783H125.684L136.168 8.65131H139.282L149.726 36.9783H146.952L143.577 27.7162ZM136.468 14.6792L132.473 25.5634H142.806L138.841 14.6391C138.21 12.9369 137.73 11.1946 137.73 11.1946H137.66C137.59 11.3849 137.069 13.047 136.478 14.6792H136.468Z" fill="#343135"/>
<path d="M155.273 8.65131H158.527L172.706 31.1307C173.557 32.5025 173.967 33.4237 173.967 33.4237H174.037V8.65131H176.591V36.9783H173.296L159.228 14.579C158.337 13.1672 157.896 12.246 157.896 12.246H157.826V36.9783H155.273V8.65131Z" fill="#343135"/>
<path d="M200.011 27.7162H188.126L184.751 36.9783H182.118L192.601 8.65131H195.715L206.159 36.9783H203.385L200.011 27.7162ZM192.902 14.6792L188.907 25.5634H199.24L195.275 14.6391C194.644 12.9369 194.163 11.1946 194.163 11.1946H194.093C194.023 11.3849 193.503 13.047 192.912 14.6792H192.902Z" fill="#343135"/>
</g>
<defs>
<clipPath id="clip0_137_312">
<rect width="421.29" height="45.75" fill="white" transform="scale(1.00131)"/>
</clipPath>
</defs>
</svg>
